<svg version="1.2" xmlns="http://www.w3.org/2000/svg" viewBox="0 0 1080 1080" width="1080" height="1080">
	<style>
		.s0 { fill: #808080;stroke: #ffffff;stroke-miterlimit:100;stroke-width: 4 } 
	</style>
	<path id="Shape 1" fill-rule="evenodd" class="s0" d="m583.49 409.52h31.29c40.45 69.01 116.21 115.31 202.95 115.31 20.13 0 39.89-2.52 58.56-7.21v410.78c0 31.89-26.17 57.66-58.56 57.66-32.39 0-58.56-25.77-58.56-57.66v-253.67l-248.88 196.02h102.48c32.39 0 58.56 25.76 58.56 57.65 0 31.89-26.17 57.66-58.56 57.66h-263.52c-96.99 0-175.68-77.48-175.68-172.96v-402.68c0-29-21.96-53.69-51.24-57.29l-14.46-1.8c-32.03-3.97-54.9-32.79-50.88-64.32 4.03-31.53 33.31-54.05 65.34-50.09l14.45 1.8c87.84 10.81 153.91 84.32 153.91 171.7v153.69c62.95-93.15 170.55-154.59 292.8-154.59zm292.8 47.75c-18.3 6.3-38.06 9.91-58.56 9.91-51.97 0-98.82-22.34-131.03-57.66q-10.16-11.08-18.12-23.78c-16.83-26.66-26.53-58.01-26.53-91.52v-211.34c0-10.63 8.6-19.1 19.4-19.28h0.36c6.04 0 11.72 2.89 15.38 7.57v0.18l23.42 30.63 49.78 65.4 8.78 11.53h117.12l8.78-11.53 49.78-65.4 23.42-30.63v-0.18c3.66-4.68 9.34-7.57 15.38-7.57h0.36c10.8 0.18 19.4 8.65 19.4 19.28v211.34c0 31.16-8.42 60.53-23.06 85.76-20.68 35.67-54.17 63.41-94.06 77.29zm-87.84-163.05c0-7.65-3.08-14.98-8.58-20.39-5.49-5.4-12.93-8.44-20.7-8.44-7.77 0-15.21 3.04-20.7 8.44-5.5 5.41-8.58 12.74-8.58 20.39 0 7.64 3.08 14.97 8.58 20.38 5.49 5.41 12.93 8.44 20.7 8.44 7.77 0 15.21-3.03 20.7-8.44 5.5-5.41 8.58-12.74 8.58-20.38zm87.84 28.82c7.77 0 15.21-3.03 20.7-8.44 5.5-5.41 8.58-12.74 8.58-20.38 0-7.65-3.08-14.98-8.58-20.39-5.49-5.4-12.93-8.44-20.7-8.44-7.77 0-15.21 3.04-20.7 8.44-5.49 5.41-8.58 12.74-8.58 20.39 0 7.64 3.09 14.97 8.58 20.38 5.49 5.41 12.93 8.44 20.7 8.44z"/>
</svg>